<?xml version="1.0" encoding="UTF-8"?>
<svg width="50px" height="50px" viewBox="0 0 50 50" version="1.1" xmlns="http://www.w3.org/2000/svg" xmlns:xlink="http://www.w3.org/1999/xlink">
    <title>Chrome</title>
    <g id="Unsupported-browser-Popup" stroke="none" stroke-width="1" fill="none" fill-rule="evenodd">
        <g id="1200_Unsupported-browser-Popup-Copy" transform="translate(-574.000000, -534.000000)" fill-rule="nonzero">
            <g id="chrome" transform="translate(574.000000, 534.000000)">
                <path d="M48.0748538,15.5965887 L24.9533138,15.5965887 C19.78577,15.5915205 15.5924951,19.7765107 15.5873294,24.9440546 C15.58577,26.5491228 15.997076,28.1275828 16.7817739,29.5276803 L5.22105263,9.691423 C13.641423,-1.20672515 29.3022417,-3.21530214 40.2003899,5.20506823 C43.7002924,7.90925926 46.4180312,11.4957115 48.0748538,15.5965887 Z" id="Path" fill="#F44336"></path>
                <path d="M49.9046245,24.9533138 C49.8930799,38.7287524 38.7287524,49.8930799 24.9533138,49.9047362 C23.910039,49.9084795 22.8678363,49.8389864 21.8344055,49.6966862 L33.0624756,29.6316764 C35.6358674,25.1517544 34.1018519,19.434308 29.6316764,16.844152 C28.2163743,16.0247563 26.6094542,15.5942495 24.9740741,15.5965792 L48.0747563,15.5965792 C49.2889864,18.5663743 49.9106238,21.7449318 49.9046245,24.9533138 Z" id="Path" fill="#FFC107"></path>
                <path d="M33.0624756,29.6316764 L21.8344055,49.6966862 L21.8136452,49.6966862 C8.15009747,47.9703704 -1.52690058,35.494347 0.199415205,21.8307992 C0.758187135,17.4082846 2.49220273,13.2163743 5.22105263,9.691423 L16.7817739,29.5276803 L16.844152,29.6316764 C19.4222222,34.1102339 25.1426901,35.6508772 29.6212476,33.0729045 C31.0518519,32.2494152 32.2390838,31.0621832 33.0624756,29.6316764 Z" id="Path" fill="#4CAF50"></path>
                <path d="M33.0624756,29.6316764 C30.4844055,34.1102339 24.7639376,35.6508772 20.2853801,33.0729045 C18.8548733,32.2494152 17.6676413,31.0621832 16.844152,29.6316764 L16.7817739,29.5276803 C14.2553606,25.0197856 15.8617934,19.3173489 20.3696881,16.7909357 C21.769883,16.0062378 23.3483431,15.5949318 24.9533138,15.5964817 L24.9740741,15.5964817 C26.6094542,15.594152 28.2163743,16.0246589 29.6316764,16.8440546 C34.1019493,19.434308 35.6358674,25.1517544 33.0624756,29.6316764 Z" id="Path" fill="#F44336"></path>
                <path d="M33.0624756,29.6316764 C30.4844055,34.1102339 24.7639376,35.6508772 20.2853801,33.0729045 C18.8548733,32.2494152 17.6676413,31.0621832 16.844152,29.6316764 L16.7817739,29.5276803 C14.2553606,25.0197856 15.8617934,19.3173489 20.3696881,16.7909357 C21.769883,16.0062378 23.3483431,15.5949318 24.9533138,15.5964817 L24.9740741,15.5964817 C26.6094542,15.594152 28.2163743,16.0246589 29.6316764,16.8440546 C34.1019493,19.434308 35.6358674,25.1517544 33.0624756,29.6316764 Z" id="Path" fill="#2196F3"></path>
                <path d="M24.9180312,35.3497123 C23.1053606,35.3497123 21.3246589,34.8718324 19.7551657,33.9649123 C18.1726121,33.0496101 16.8582846,31.7346004 15.9438596,30.1515595 C13.0730019,25.1790448 14.7767057,18.8207602 19.7492203,15.9499025 C21.331384,15.0364522 23.1264133,14.5560429 24.9534113,14.5570143 C30.6951267,14.5525341 35.3534113,19.2036062 35.3578006,24.9453216 C35.3592593,26.7730019 34.8787524,28.5687135 33.9649123,30.1515595 L33.9649123,30.1515595 C32.0912281,33.372807 28.6445419,35.3532164 24.9180312,35.3497123 Z M24.9720273,16.6361392 C21.9883041,16.6203704 19.2259259,18.2083821 17.7382066,20.7948343 C15.4415205,24.7772904 16.8080897,29.8676413 20.7905458,32.1643275 C24.7730019,34.4610136 29.8633528,33.0944444 32.160039,29.1119883 L32.160039,29.1119883 C34.4567251,25.1340156 33.0937622,20.0473684 29.1157895,17.7505848 C27.8563353,17.0234893 26.4282651,16.6392788 24.9740741,16.6363548 L24.9720273,16.6363548 L24.9720273,16.6361392 Z" id="Shape" fill="#FAFAFA"></path>
            </g>
        </g>
    </g>
</svg>