<?xml version="1.0" encoding="UTF-8"?>
<svg width="51px" height="50px" viewBox="0 0 51 50" version="1.1" xmlns="http://www.w3.org/2000/svg" xmlns:xlink="http://www.w3.org/1999/xlink">
    <title>Firefox</title>
    <defs>
        <radialGradient cx="89.4176253%" cy="13.1201834%" fx="89.4176253%" fy="13.1201834%" r="121.937995%" gradientTransform="translate(0.894176,0.131202),scale(0.926649,1.000000),translate(-0.894176,-0.131202)" id="radialGradient-1">
            <stop stop-color="#FFF44F" offset="0%"></stop>
            <stop stop-color="#FF980E" offset="29.49%"></stop>
            <stop stop-color="#FF5D36" offset="43.15%"></stop>
            <stop stop-color="#FF3750" offset="53.02%"></stop>
            <stop stop-color="#F5156C" offset="74.93%"></stop>
            <stop stop-color="#F1136E" offset="76.48%"></stop>
            <stop stop-color="#DA057A" offset="88.01%"></stop>
            <stop stop-color="#D2007F" offset="95.28%"></stop>
        </radialGradient>
        <radialGradient cx="8.27409498%" cy="23.6469233%" fx="8.27409498%" fy="23.6469233%" r="70.4268411%" gradientTransform="translate(0.082741,0.236469),scale(0.926649,1.000000),translate(-0.082741,-0.236469)" id="radialGradient-2">
            <stop stop-color="#B5007F" offset="0%"></stop>
            <stop stop-color="#F5156C" stop-opacity="0" offset="100%"></stop>
        </radialGradient>
        <radialGradient cx="99.1198962%" cy="12.4678391%" fx="99.1198962%" fy="12.4678391%" r="133.585583%" gradientTransform="translate(0.991199,0.124678),scale(0.926649,1.000000),translate(-0.991199,-0.124678)" id="radialGradient-3">
            <stop stop-color="#FFDD00" stop-opacity="0.6" offset="0%"></stop>
            <stop stop-color="#FFD801" stop-opacity="0.5244" offset="8.366717%"></stop>
            <stop stop-color="#FECA05" stop-opacity="0.4353" offset="18.22%"></stop>
            <stop stop-color="#FEB20C" stop-opacity="0.3394" offset="28.84%"></stop>
            <stop stop-color="#FD9115" stop-opacity="0.2388" offset="39.98%"></stop>
            <stop stop-color="#FB6621" stop-opacity="0.1343" offset="51.54%"></stop>
            <stop stop-color="#F9332F" stop-opacity="0.02816397" offset="63.29%"></stop>
            <stop stop-color="#F92433" stop-opacity="0" offset="66.4%"></stop>
        </radialGradient>
        <radialGradient cx="52.852317%" cy="55.6403794%" fx="52.852317%" fy="55.6403794%" r="179.478348%" gradientTransform="translate(0.528523,0.556404),scale(0.926649,1.000000),translate(-0.528523,-0.556404)" id="radialGradient-4">
            <stop stop-color="#960E18" offset="15.28%"></stop>
            <stop stop-color="#CC2335" stop-opacity="0.5541" offset="20.61%"></stop>
            <stop stop-color="#F13148" stop-opacity="0.1914" offset="24.95%"></stop>
            <stop stop-color="#FF3750" stop-opacity="0" offset="27.24%"></stop>
        </radialGradient>
        <radialGradient cx="39.841414%" cy="53.4733997%" fx="39.841414%" fy="53.4733997%" r="180.728135%" gradientTransform="translate(0.398414,0.534734),scale(0.926649,1.000000),translate(-0.398414,-0.534734)" id="radialGradient-5">
            <stop stop-color="#960E18" offset="11.29%"></stop>
            <stop stop-color="#CC2335" stop-opacity="0.5541" offset="18.93%"></stop>
            <stop stop-color="#F13148" stop-opacity="0.1914" offset="25.15%"></stop>
            <stop stop-color="#FF3750" stop-opacity="0" offset="28.43%"></stop>
        </radialGradient>
        <radialGradient cx="89.7538253%" cy="11.5065518%" fx="89.7538253%" fy="11.5065518%" r="125.675113%" gradientTransform="translate(0.897538,0.115066),scale(0.935373,1.000000),translate(-0.897538,-0.115066)" id="radialGradient-6">
            <stop stop-color="#FF980E" offset="0%"></stop>
            <stop stop-color="#FF7139" offset="29.5%"></stop>
            <stop stop-color="#FF5B51" offset="48.46%"></stop>
            <stop stop-color="#FF4F5E" offset="62.6%"></stop>
            <stop stop-color="#FF4055" offset="73.65%"></stop>
            <stop stop-color="#FF3750" offset="84.28%"></stop>
        </radialGradient>
        <radialGradient cx="89.7538253%" cy="16.1258535%" fx="89.7538253%" fy="16.1258535%" r="119.220373%" gradientTransform="translate(0.897538,0.161259),scale(0.935373,1.000000),translate(-0.897538,-0.161259)" id="radialGradient-7">
            <stop stop-color="#FFDE08" offset="8.407452%"></stop>
            <stop stop-color="#FFD609" stop-opacity="0.832" offset="20.81%"></stop>
            <stop stop-color="#FFBF0B" stop-opacity="0.5677" offset="40.33%"></stop>
            <stop stop-color="#FF9B0F" stop-opacity="0.242" offset="64.37%"></stop>
            <stop stop-color="#FF7B12" stop-opacity="0" offset="82.24%"></stop>
        </radialGradient>
        <radialGradient cx="62.2590152%" cy="53.1745336%" fx="62.2590152%" fy="53.1745336%" r="60.0088383%" gradientTransform="translate(0.622590,0.531745),scale(0.935373,1.000000),rotate(75.684055),translate(-0.622590,-0.531745)" id="radialGradient-8">
            <stop stop-color="#FF3750" offset="36.34%"></stop>
            <stop stop-color="#FF444B" stop-opacity="0.7895" offset="41.11%"></stop>
            <stop stop-color="#FF7139" stop-opacity="0" offset="59.02%"></stop>
        </radialGradient>
        <radialGradient cx="52.1994801%" cy="58.1224591%" fx="52.1994801%" fy="58.1224591%" r="60.6944683%" gradientTransform="translate(0.521995,0.581225),scale(0.935373,1.000000),rotate(75.684055),translate(-0.521995,-0.581225)" id="radialGradient-9">
            <stop stop-color="#FF3750" stop-opacity="0.8" offset="21.59%"></stop>
            <stop stop-color="#FF444B" stop-opacity="0.6316" offset="27.02%"></stop>
            <stop stop-color="#FF7139" stop-opacity="0" offset="47.39%"></stop>
        </radialGradient>
        <radialGradient cx="126.178389%" cy="-3.74389661%" fx="126.178389%" fy="-3.74389661%" r="297.813367%" gradientTransform="translate(1.261784,-0.037439),scale(1.000000,0.907069),translate(-1.261784,0.037439)" id="radialGradient-10">
            <stop stop-color="#FFF44F" offset="5.35657%"></stop>
            <stop stop-color="#FF980E" offset="45.73%"></stop>
            <stop stop-color="#FF8424" offset="52.11%"></stop>
            <stop stop-color="#FF7634" offset="58.71%"></stop>
            <stop stop-color="#FF7139" offset="63.93%"></stop>
        </radialGradient>
        <linearGradient x1="73.7527889%" y1="8.61828091%" x2="22.7068119%" y2="87.2959661%" id="linearGradient-11">
            <stop stop-color="#FFF44F" stop-opacity="0.8" offset="0%"></stop>
            <stop stop-color="#FFF44F" stop-opacity="0" offset="75%"></stop>
        </linearGradient>
        <linearGradient x1="49.9909566%" y1="100.39004%" x2="49.9909566%" y2="1.01784372%" id="linearGradient-12">
            <stop stop-color="#3A8EE6" offset="0%"></stop>
            <stop stop-color="#4D82EB" offset="10.16%"></stop>
            <stop stop-color="#7D65FA" offset="38.85%"></stop>
            <stop stop-color="#9059FF" offset="53.09%"></stop>
            <stop stop-color="#9D50F8" offset="69.15%"></stop>
            <stop stop-color="#C03AE7" offset="98.88%"></stop>
            <stop stop-color="#C139E6" offset="100%"></stop>
        </linearGradient>
        <linearGradient x1="34.0025047%" y1="5.97733998%" x2="83.601743%" y2="84.573433%" id="linearGradient-13">
            <stop stop-color="#9059FF" stop-opacity="0" offset="80.54%"></stop>
            <stop stop-color="#6E008B" stop-opacity="0.5" offset="100%"></stop>
        </linearGradient>
    </defs>
    <g id="Unsupported-browser-Popup" stroke="none" stroke-width="1" fill="none" fill-rule="evenodd">
        <g id="1200_Unsupported-browser-Popup-Copy" transform="translate(-696.000000, -534.000000)" fill-rule="nonzero">
            <g id="Firefox" transform="translate(696.000000, 534.000000)">
                <g id="Group" transform="translate(0.357143, 3.928571)">
                    <path d="M44.297619,6.1547619 C42.4047619,3.66666667 40.0833333,1.61904762 37.4761905,0.0595238095 C37.3571429,-0.0119047619 37.202381,0.0119047619 37.0952381,0.107142857 C37.0952381,0.107142857 37.0952381,0.107142857 37.0952381,0.107142857 C36.952381,0.25 36.9880952,0.476190476 37.1428571,0.583333333 C41.9761905,3.71428571 45.702381,8.76190476 46.5714286,15.5 C48.3571429,29.1904762 38.797619,40.6190476 25.3452381,40.6547619 C10.5595238,40.702381 1.55952381,27.6309524 3.91666667,15.8928571 C4.03571429,15.3095238 3.97619048,14.7380952 4.16666667,14.1785714 C4.27380952,12.1190476 5.05952381,8.88095238 6.75,5.57142857 C5.04761905,6.45238095 2.88095238,9.23809524 1.80952381,11.8095238 C0.261904762,15.5238095 -0.273809524,19.9642857 0.214285714,24.1904762 C0.25,24.5119048 0.285714286,24.8214286 0.321428571,25.1428571 C2.30952381,36.7857143 12.452381,45.6428571 24.6547619,45.6190955 C38.25,45.5952381 49.3214286,34.4404762 49.2503437,20.8333333 C49.2261905,15.3333333 47.3809524,10.25 44.297619,6.1547619 Z" id="Path" fill="url(#radialGradient-1)"></path>
                    <path d="M44.297619,6.1547619 C42.4047619,3.66666667 40.0833333,1.61904762 37.4761905,0.0595238095 C37.3571429,-0.0119047619 37.202381,0.0119047619 37.0952381,0.107142857 C37.0952381,0.107142857 37.0952381,0.107142857 37.0952381,0.107142857 C36.952381,0.25 36.9880952,0.476190476 37.1428571,0.583333333 C41.9761905,3.71428571 45.702381,8.76190476 46.5714286,15.5 C48.3571429,29.1904762 38.797619,40.6190476 25.3452381,40.6547619 C10.5595238,40.702381 1.55952381,27.6309524 3.91666667,15.8928571 C4.03571429,15.3095238 3.97619048,14.7380952 4.16666667,14.1785714 C4.27380952,12.1190476 5.05952381,8.88095238 6.75,5.57142857 C5.04761905,6.45238095 2.88095238,9.23809524 1.80952381,11.8095238 C0.261904762,15.5238095 -0.273809524,19.9642857 0.214285714,24.1904762 C0.25,24.5119048 0.285714286,24.8214286 0.321428571,25.1428571 C2.30952381,36.7857143 12.452381,45.6428571 24.6547619,45.6190955 C38.25,45.5952381 49.3214286,34.4404762 49.2503437,20.8333333 C49.2261905,15.3333333 47.3809524,10.25 44.297619,6.1547619 Z" id="Path" fill="url(#radialGradient-2)" opacity="0.67"></path>
                    <path d="M44.297619,6.1547619 C42.4047619,3.66666667 40.0833333,1.61904762 37.4761905,0.0595238095 C37.3571429,-0.0119047619 37.202381,0.0119047619 37.0952381,0.107142857 C37.0952381,0.107142857 37.0952381,0.107142857 37.0952381,0.107142857 C36.952381,0.25 36.9880952,0.476190476 37.1428571,0.583333333 C41.9761905,3.71428571 45.702381,8.76190476 46.5714286,15.5 C48.3571429,29.1904762 38.797619,40.6190476 25.3452381,40.6547619 C10.5595238,40.702381 1.55952381,27.6309524 3.91666667,15.8928571 C4.03571429,15.3095238 3.97619048,14.7380952 4.16666667,14.1785714 C4.27380952,12.1190476 5.05952381,8.88095238 6.75,5.57142857 C5.04761905,6.45238095 2.88095238,9.23809524 1.80952381,11.8095238 C0.261904762,15.5238095 -0.273809524,19.9642857 0.214285714,24.1904762 C0.25,24.5119048 0.285714286,24.8214286 0.321428571,25.1428571 C2.30952381,36.7857143 12.452381,45.6428571 24.6547619,45.6190955 C38.25,45.5952381 49.3214286,34.4404762 49.2503437,20.8333333 C49.2261905,15.3333333 47.3809524,10.25 44.297619,6.1547619 Z" id="Path" fill="url(#radialGradient-3)"></path>
                </g>
                <g id="Group" transform="translate(0.357143, 3.928571)">
                    <path d="M44.297619,6.1547619 C42.4047619,3.66666667 40.0833333,1.61904762 37.4761905,0.0595238095 C37.3571429,-0.0119047619 37.202381,0.0119047619 37.0952381,0.107142857 C37.0952381,0.107142857 37.0952381,0.107142857 37.0952381,0.107142857 C36.952381,0.25 36.9880952,0.476190476 37.1428571,0.583333333 C41.9761905,3.71428571 45.702381,8.76190476 46.5714286,15.5 C48.3571429,29.1904762 38.797619,40.6190476 25.3452381,40.6547619 C10.5595238,40.702381 1.55952381,27.6309524 3.91666667,15.8928571 C4.03571429,15.3095238 3.97619048,14.7380952 4.16666667,14.1785714 C4.27380952,12.1190476 5.05952381,8.88095238 6.75,5.57142857 C5.04761905,6.45238095 2.88095238,9.23809524 1.80952381,11.8095238 C0.261904762,15.5238095 -0.273809524,19.9642857 0.214285714,24.1904762 C0.25,24.5119048 0.285714286,24.8214286 0.321428571,25.1428571 C2.30952381,36.7857143 12.452381,45.6428571 24.6547619,45.6190955 C38.25,45.5952381 49.3214286,34.4404762 49.2503437,20.8333333 C49.2261905,15.3333333 47.3809524,10.25 44.297619,6.1547619 Z" id="Path" fill="url(#radialGradient-4)"></path>
                    <path d="M44.297619,6.1547619 C42.4047619,3.66666667 40.0833333,1.61904762 37.4761905,0.0595238095 C37.3571429,-0.0119047619 37.202381,0.0119047619 37.0952381,0.107142857 C37.0952381,0.107142857 37.0952381,0.107142857 37.0952381,0.107142857 C36.952381,0.25 36.9880952,0.476190476 37.1428571,0.583333333 C41.9761905,3.71428571 45.702381,8.76190476 46.5714286,15.5 C48.3571429,29.1904762 38.797619,40.6190476 25.3452381,40.6547619 C10.5595238,40.702381 1.55952381,27.6309524 3.91666667,15.8928571 C4.03571429,15.3095238 3.97619048,14.7380952 4.16666667,14.1785714 C4.27380952,12.1190476 5.05952381,8.88095238 6.75,5.57142857 C5.04761905,6.45238095 2.88095238,9.23809524 1.80952381,11.8095238 C0.261904762,15.5238095 -0.273809524,19.9642857 0.214285714,24.1904762 C0.25,24.5119048 0.285714286,24.8214286 0.321428571,25.1428571 C2.30952381,36.7857143 12.452381,45.6428571 24.6547619,45.6190955 C38.25,45.5952381 49.3214286,34.4404762 49.2503437,20.8333333 C49.2261905,15.3333333 47.3809524,10.25 44.297619,6.1547619 Z" id="Path" fill="url(#radialGradient-5)"></path>
                </g>
                <g id="Group" transform="translate(3.571429, 3.571429)">
                    <path d="M43.9642857,15.1785714 C43.1666667,8.01190476 39.1428571,3.11904762 34,0.261904762 C33.1428571,-0.214285714 32.0595238,-0.0119047619 31.4404762,0.75 L31.4285714,0.761904762 C37.2857143,4.36904762 40.9761905,10.7619048 41.1666667,17.4285714 C41.3928571,25.5357143 34.7380952,32 27.0714286,32.3690476 C21.5,32.6428571 16.25,29.952381 13.6785714,24.5595238 C13.1071429,23.3571429 12.6904762,22.1428571 12.4761905,20.6666667 C11.2619048,12.4761905 16.7738095,5.48809524 21.8333333,3.75 C19.1071429,1.36904762 12.2619048,1.53571429 7.17857143,5.27380952 C3.51190476,7.96428571 1.13095238,12.0595238 0.345238095,16.9404762 C-0.25,20.6666667 0.30952381,24.5357143 1.78571429,27.9880952 C3.28571429,31.5119048 5.72619048,34.6190476 8.80952381,36.9047619 C12.1428571,39.3928571 16.1666667,40.8333333 20.3095238,41.1428571 C20.9166667,41.1904762 21.5357143,41.2143201 22.1428571,41.2143201 C38.4166667,41.2380952 45.4880952,28.9047619 43.9642857,15.1785714 Z" id="Path" fill="url(#radialGradient-6)"></path>
                    <path d="M43.9642857,15.1785714 C43.1666667,8.01190476 39.1428571,3.11904762 34,0.261904762 C33.1428571,-0.214285714 32.0595238,-0.0119047619 31.4404762,0.75 L31.4285714,0.761904762 C37.2857143,4.36904762 40.9761905,10.7619048 41.1666667,17.4285714 C41.3928571,25.5357143 34.7380952,32 27.0714286,32.3690476 C21.5,32.6428571 16.25,29.952381 13.6785714,24.5595238 C13.1071429,23.3571429 12.6904762,22.1428571 12.4761905,20.6666667 C11.2619048,12.4761905 16.7738095,5.48809524 21.8333333,3.75 C19.1071429,1.36904762 12.2619048,1.53571429 7.17857143,5.27380952 C3.51190476,7.96428571 1.13095238,12.0595238 0.345238095,16.9404762 C-0.25,20.6666667 0.30952381,24.5357143 1.78571429,27.9880952 C3.28571429,31.5119048 5.72619048,34.6190476 8.80952381,36.9047619 C12.1428571,39.3928571 16.1666667,40.8333333 20.3095238,41.1428571 C20.9166667,41.1904762 21.5357143,41.2143201 22.1428571,41.2143201 C38.4166667,41.2380952 45.4880952,28.9047619 43.9642857,15.1785714 Z" id="Path" fill="url(#radialGradient-7)"></path>
                </g>
                <g id="Group" transform="translate(3.571429, 3.571429)" opacity="0.53">
                    <path d="M43.9642857,15.1785714 C43.1666667,8.01190476 39.1428571,3.11904762 34,0.261904762 C33.1428571,-0.214285714 32.0595238,-0.0119047619 31.4404762,0.75 L31.4285714,0.761904762 C37.2857143,4.36904762 40.9761905,10.7619048 41.1666667,17.4285714 C41.3928571,25.5357143 34.7380952,32 27.0714286,32.3690476 C21.5,32.6428571 16.25,29.952381 13.6785714,24.5595238 C13.1071429,23.3571429 12.6904762,22.1428571 12.4761905,20.6666667 C11.2619048,12.4761905 16.7738095,5.48809524 21.8333333,3.75 C19.1071429,1.36904762 12.2619048,1.53571429 7.17857143,5.27380952 C3.51190476,7.96428571 1.13095238,12.0595238 0.345238095,16.9404762 C-0.25,20.6666667 0.30952381,24.5357143 1.78571429,27.9880952 C3.28571429,31.5119048 5.72619048,34.6190476 8.80952381,36.9047619 C12.1428571,39.3928571 16.1666667,40.8333333 20.3095238,41.1428571 C20.9166667,41.1904762 21.5357143,41.2143201 22.1428571,41.2143201 C38.4166667,41.2380952 45.4880952,28.9047619 43.9642857,15.1785714 Z" id="Path" fill="url(#radialGradient-8)"></path>
                    <path d="M43.9642857,15.1785714 C43.1666667,8.01190476 39.1428571,3.11904762 34,0.261904762 C33.1428571,-0.214285714 32.0595238,-0.0119047619 31.4404762,0.75 L31.4285714,0.761904762 C37.2857143,4.36904762 40.9761905,10.7619048 41.1666667,17.4285714 C41.3928571,25.5357143 34.7380952,32 27.0714286,32.3690476 C21.5,32.6428571 16.25,29.952381 13.6785714,24.5595238 C13.1071429,23.3571429 12.6904762,22.1428571 12.4761905,20.6666667 C11.2619048,12.4761905 16.7738095,5.48809524 21.8333333,3.75 C19.1071429,1.36904762 12.2619048,1.53571429 7.17857143,5.27380952 C3.51190476,7.96428571 1.13095238,12.0595238 0.345238095,16.9404762 C-0.25,20.6666667 0.30952381,24.5357143 1.78571429,27.9880952 C3.28571429,31.5119048 5.72619048,34.6190476 8.80952381,36.9047619 C12.1428571,39.3928571 16.1666667,40.8333333 20.3095238,41.1428571 C20.9166667,41.1904762 21.5357143,41.2143201 22.1428571,41.2143201 C38.4166667,41.2380952 45.4880952,28.9047619 43.9642857,15.1785714 Z" id="Path" fill="url(#radialGradient-9)"></path>
                </g>
                <path d="M35.0357143,4.29761905 C35.0238095,4.30952381 35.0238095,4.32142857 35.0119048,4.33333333 C34.3095238,5.20238095 34.452381,6.46428571 35.3095238,7.17857143 C39,10.202381 41.4761905,14.5 41.4761905,19.4642857 C41.4761905,26.3214286 36.1666667,31.547619 29.952381,31.1785714 C20.7142857,30.6190476 18.3928571,21.1785714 23.1904762,17.0952381 C21.8928571,16.8214286 19.4642857,17.3571429 17.7619048,19.8928571 C16.2380952,22.1666667 16.3214286,25.6666667 17.2619048,28.1547619 C19.8333333,33.5357143 25.0833333,36.297619 30.6547619,35.9642857 C41.1785714,35.3214286 45.6785714,26.6428571 45.9642857,20.4642857 C46.2738095,13.7619048 44.7619048,7.82142857 37.5952381,3.82142857 C36.7261905,3.33333333 35.6547619,3.53571429 35.0357143,4.29761905 Z" id="Path" fill="url(#radialGradient-10)"></path>
                <path d="M44.6547619,10.0833333 C44,9.21428571 43.2738095,8.4047619 42.5119048,7.64285714 C41.9047619,7 41.25,6.4047619 40.5595238,5.8452381 C40.952381,6.19047619 41.3333333,6.55952381 41.702381,6.94047619 C43.0357143,8.38095238 44.0952381,10.0833333 44.702381,11.9404762 C45.9880952,15.8214286 45.9047619,20.6904762 43.452381,24.5 C40.5238095,29.047619 35.7619048,31.297619 30.6190476,31.1904762 C30.3928571,31.1904762 30.1785714,31.1904762 29.952381,31.1785714 C20.7142857,30.6190476 18.3928571,21.1785714 23.1904762,17.0952381 C21.8928571,16.8214286 19.4642857,17.3571429 17.7619048,19.8928571 C16.2380952,22.1666667 16.3214286,25.6666667 17.2619048,28.1547619 C16.6904762,26.952381 16.2738095,25.7380952 16.0595238,24.2619048 C14.8452381,16.0714286 20.3571429,9.08333333 25.4166667,7.3452381 C22.6904762,4.96428571 15.8452381,5.13095238 10.7619048,8.86904762 C7.79761905,11.047619 5.67857143,14.1428571 4.55952381,17.8333333 C4.72619048,15.7619048 5.51190476,12.6785714 7.11904762,9.51190476 C5.41666667,10.3928571 3.25,13.1785714 2.17857143,15.75 C0.630952381,19.4642857 0.0952380952,23.9047619 0.583333333,28.1309524 C0.619047619,28.452381 0.654761905,28.7619048 0.69047619,29.0833333 C2.66666667,40.702381 12.797619,49.5595238 24.9761905,49.5595238 C38.5833333,49.5595238 49.6190476,38.5238095 49.6190476,24.9166667 C49.6071429,19.3452381 47.7619048,14.2142857 44.6547619,10.0833333 Z" id="Path" fill="url(#linearGradient-11)"></path>
                <path d="M44.702381,11.9404762 C44.0833333,10.0833333 43.0357143,8.38095238 41.702381,6.94047619 C38.8452381,3.86904762 34.6428571,1.9047619 30.5952381,1.01190476 C27.1904762,0.261904762 23.6190476,0.273809524 20.4047619,0.952380952 C16.9047619,1.69047619 13.8333333,3.20238095 11.8928571,5.08333333 C18.6071429,1.1547619 27.6547619,1.88095238 33.8452381,6.28571429 C34.8809524,7.02380952 35.8452381,7.86904762 36.7142857,8.79761905 C40.8333333,13.2380952 42.5119048,20.6547619 39.047619,25.9880952 C37.3095238,28.6904762 33.5714286,31.2145272 30.0833333,31.1904762 C35.4285714,31.4761905 40.4166667,29.2142857 43.4404762,24.5119048 C45.9047619,20.6904762 45.9880952,15.8214286 44.702381,11.9404762 Z" id="Path" fill="url(#linearGradient-12)"></path>
                <path d="M44.702381,11.9404762 C44.0833333,10.0833333 43.0357143,8.38095238 41.702381,6.94047619 C38.8452381,3.86904762 34.6428571,1.9047619 30.5952381,1.01190476 C27.1904762,0.261904762 23.6190476,0.273809524 20.4047619,0.952380952 C16.9047619,1.69047619 13.8333333,3.20238095 11.8928571,5.08333333 C18.6071429,1.1547619 27.6547619,1.88095238 33.8452381,6.28571429 C34.8809524,7.02380952 35.8452381,7.86904762 36.7142857,8.79761905 C40.8333333,13.2380952 42.5119048,20.6547619 39.047619,25.9880952 C37.3095238,28.6904762 33.5714286,31.2145272 30.0833333,31.1904762 C35.4285714,31.4761905 40.4166667,29.2142857 43.4404762,24.5119048 C45.9047619,20.6904762 45.9880952,15.8214286 44.702381,11.9404762 Z" id="Path" fill="url(#linearGradient-13)"></path>
            </g>
        </g>
    </g>
</svg>