<!-- Generated by IcoMoon.io -->
<svg version="1.1" xmlns="http://www.w3.org/2000/svg" width="32" height="32" viewBox="0 0 32 32">
<title>in</title>
<path fill="#f89938" d="M30.012 10.916c-2.108-5.704-7.564-9.796-14.012-9.796s-11.904 4.092-14.012 9.796h28.024z"></path>
<path fill="#fff" d="M16 15.318c0.124 0 0.186 0.062 0.31 0.124l0.248-0.682 1.364-2.046c-0.062-0.062-0.186-0.124-0.248-0.124 0 0 0 0 0 0-0.062 0.062-0.186 0.124-0.248 0.062 0 0 0 0 0 0-0.062-0.062-0.124-0.124-0.062-0.248-0.124-0.062-0.186-0.062-0.31-0.124l-0.062 0.124-0.496 2.294-0.31 0.682 0.062-0.682 0.744-2.232v-0.124c0 0 0 0 0 0v0c-0.124 0-0.186-0.062-0.31-0.062 0 0.124-0.124 0.124-0.186 0.124s-0.124-0.124-0.124-0.186h-0.372l0.124 2.418-0.124 0.682z"></path>
<path fill="#fff" d="M19.844 16.31v-0.31l-2.48 0.124-0.682-0.124c0 0.124-0.062 0.248-0.124 0.31l0.682 0.248 1.922 1.24 0.124 0.062c0 0 0 0 0 0l0.062 0.062c0.062-0.062 0.124-0.186 0.124-0.248 0 0 0 0 0 0-0.062-0.062-0.124-0.124-0.062-0.248 0 0 0 0 0 0 0.062-0.062 0.186-0.124 0.248-0.062 0.062-0.124 0.062-0.186 0.124-0.31l-2.418-0.496-0.682-0.31 0.744 0.062 2.356 0.744c0-0.124 0.062-0.186 0.062-0.31-0.124 0-0.124-0.124-0.124-0.186-0.062-0.186 0-0.248 0.124-0.248z"></path>
<path fill="#fff" d="M16.31 15.442c0.062 0 0.062 0.062 0.124 0.062l0.434-0.62 1.736-1.55 0.062-0.124c-0.062-0.062-0.124-0.124-0.248-0.186-0.062 0.124-0.124 0.124-0.248 0.062s-0.124-0.124-0.062-0.248c-0.124-0.062-0.124-0.124-0.248-0.124l-1.116 2.17-0.434 0.558z"></path>
<path fill="#fff" d="M18.604 13.396l-1.55 1.736-0.62 0.434c0 0 0 0 0 0 0.062 0.062 0.062 0.062 0.124 0.124l0.496-0.434 2.17-1.178c-0.062-0.124-0.124-0.124-0.124-0.248-0.124 0.062-0.186 0.062-0.248-0.062 0 0 0 0 0 0-0.062-0.062 0-0.186 0.062-0.248-0.062-0.124-0.124-0.186-0.186-0.248v0c0 0 0 0 0 0l-0.124 0.124z"></path>
<path fill="#fff" d="M17.054 16.744l-0.496-0.434c0 0.062-0.062 0.062-0.062 0.124l0.62 0.434 1.612 1.798c0.062-0.124 0.124-0.124 0.186-0.248-0.124-0.062-0.124-0.124-0.062-0.248s0.124-0.124 0.248-0.062c0.062-0.124 0.124-0.124 0.124-0.248l-0.124-0.062-2.046-1.054z"></path>
<path fill="#fff" d="M16.558 15.69c0.062 0.124 0.124 0.186 0.124 0.31l0.744-0.062 2.48 0.124v-0.31c-0.124 0-0.186-0.062-0.186-0.124 0-0.124 0.062-0.186 0.124-0.186 0-0.124 0-0.186-0.062-0.31l-2.356 0.744-0.744 0.062 0.682-0.31 2.418-0.496c-0.062-0.186-0.062-0.31-0.124-0.372 0 0 0 0 0 0-0.124 0.062-0.186 0-0.248-0.124 0 0 0 0 0 0-0.062-0.124 0-0.186 0.124-0.248-0.062-0.062-0.124-0.186-0.124-0.248l-2.17 1.302-0.682 0.248z"></path>
<path fill="#fff" d="M15.69 16.558c-0.062 0-0.062-0.062-0.124-0.062l-0.434 0.62-1.736 1.55-0.062 0.124c0.062 0.062 0.124 0.124 0.248 0.186 0.062-0.124 0.124-0.124 0.248-0.062s0.124 0.124 0.062 0.248c0.124 0.062 0.124 0.124 0.248 0.124l1.116-2.17 0.434-0.558z"></path>
<path fill="#fff" d="M13.396 18.604l1.55-1.736 0.62-0.434c0 0 0 0 0 0-0.062 0-0.062-0.062-0.062-0.124l-0.558 0.434-2.232 1.116c0.062 0.124 0.124 0.124 0.124 0.248 0.124-0.062 0.186-0.062 0.248 0.062 0 0 0 0 0 0 0.062 0.062 0 0.186-0.062 0.248 0.062 0.124 0.124 0.186 0.186 0.248v0c0 0 0 0 0 0l0.186-0.062z"></path>
<path fill="#fff" d="M16 16.682c-0.124 0-0.186-0.062-0.31-0.124l-0.248 0.682-1.364 2.046c0.062 0.062 0.186 0.124 0.248 0.124 0 0 0 0 0 0 0.062-0.062 0.186-0.124 0.248-0.062 0 0 0 0 0 0 0.062 0.062 0.124 0.124 0.062 0.248 0.124 0.062 0.186 0.062 0.31 0.124v0c0 0 0 0 0 0v-0.062l0.496-2.294 0.31-0.682-0.062 0.682-0.744 2.294v0.062c0.124 0 0.186 0.062 0.31 0.062 0-0.124 0.124-0.124 0.186-0.124s0.124 0.124 0.124 0.186v0h0.434l-0.124-2.418 0.124-0.744z"></path>
<path fill="#fff" d="M16.806 17.116l1.116 2.17c0.124-0.062 0.124-0.124 0.248-0.124-0.062-0.124-0.062-0.186 0.062-0.248 0 0 0 0 0 0 0.062-0.062 0.186 0 0.248 0.062 0.124-0.062 0.186-0.124 0.248-0.186l-1.86-1.612-0.434-0.62c-0.062 0-0.062 0.062-0.124 0.062l0.496 0.496z"></path>
<path fill="#fff" d="M16.31 16.558c-0.062 0.062-0.186 0.062-0.31 0.124l0.124 0.744-0.124 2.418h0.31c0-0.124 0.062-0.186 0.124-0.186 0.124 0 0.186 0.062 0.186 0.124 0.124 0 0.186 0 0.31-0.062v-0.062l-0.744-2.294-0.062-0.682 0.31 0.682 0.496 2.356v0.062c0 0 0 0 0 0v0c0.124-0.062 0.186-0.062 0.31-0.124 0 0 0 0 0 0-0.062-0.124 0-0.186 0.124-0.248 0 0 0 0 0 0 0.124-0.062 0.186 0 0.248 0.124 0.062-0.062 0.186-0.124 0.248-0.124l-1.302-2.17-0.248-0.682z"></path>
<path fill="#fff" d="M12.156 15.69v0.62c0.124 0 0.186 0.062 0.186 0.124s-0.062 0.186-0.124 0.186c0 0.124 0 0.186 0.062 0.31v0c0 0 0 0 0 0h0.124l2.232-0.744 0.744-0.062-0.682 0.31-2.294 0.496-0.124 0.062c0.062 0.124 0.062 0.186 0.124 0.31 0 0 0 0 0 0 0.124-0.062 0.186 0 0.248 0.124 0 0 0 0 0 0 0.062 0.124 0 0.186-0.124 0.248 0.062 0.062 0.124 0.186 0.124 0.248l2.108-1.24 0.682-0.248c-0.062-0.124-0.124-0.186-0.124-0.372l-0.744 0.062-2.48-0.124 2.48-0.124 0.744 0.062c0-0.124 0.062-0.186 0.124-0.31l-0.682-0.186-2.108-1.302c-0.062 0.062-0.124 0.186-0.124 0.248 0 0 0 0 0 0 0.062 0.062 0.124 0.124 0.062 0.248 0 0 0 0 0 0-0.062 0.124-0.124 0.124-0.248 0.124-0.062 0.124-0.062 0.186-0.124 0.31l0.124 0.062 2.294 0.496 0.682 0.31-0.744-0.062-2.232-0.744h-0.124c0 0 0 0 0 0v0c0 0.124-0.062 0.186-0.062 0.31 0.124 0 0.124 0.124 0.124 0.186s0 0.062-0.124 0.062z"></path>
<path fill="#fff" d="M15.442 15.69c0-0.062 0.062-0.062 0.062-0.124l-0.558-0.372-1.55-1.736-0.124-0.062c0 0 0 0 0 0v0c-0.062 0.124-0.124 0.124-0.186 0.248 0.124 0.062 0.124 0.124 0.062 0.248s-0.124 0.124-0.248 0.062c-0.062 0.124-0.124 0.124-0.124 0.248l2.17 1.116 0.496 0.372z"></path>
<path fill="#fff" d="M15.69 15.442c0.124-0.062 0.186-0.124 0.31-0.124l-0.124-0.744 0.124-2.418h-0.31c0 0.124-0.062 0.186-0.124 0.186-0.124 0-0.186-0.062-0.186-0.124-0.124 0-0.186 0-0.31 0.062v0.062l0.744 2.294 0.062 0.744-0.31-0.682-0.496-2.356v-0.062c0 0 0 0 0 0v0c-0.124 0.062-0.186 0.062-0.31 0.124 0 0 0 0 0 0 0.062 0.124 0 0.186-0.124 0.248 0 0 0 0 0 0-0.124 0.062-0.186 0-0.248-0.124-0.062 0.062-0.186 0.124-0.248 0.124l1.364 2.108 0.186 0.682z"></path>
<path fill="#fff" d="M1.12 16c0 1.798 0.31 3.472 0.868 5.084h27.962c0.558-1.612 0.868-3.286 0.868-5.084s-0.31-3.472-0.868-5.084h-27.962c-0.558 1.612-0.868 3.286-0.868 5.084zM16 11.66c2.418 0 4.34 1.922 4.34 4.34s-1.922 4.34-4.34 4.34-4.34-1.922-4.34-4.34 1.922-4.34 4.34-4.34z"></path>
<path fill="#fff" d="M15.194 14.946l0.372 0.558c0.062-0.062 0.062-0.062 0.124-0.062l-0.496-0.496-1.054-2.17c-0.124 0.062-0.124 0.124-0.248 0.124 0.062 0.124 0.062 0.186-0.062 0.248 0 0 0 0 0 0-0.062 0.062-0.186 0-0.248-0.062-0.062 0.062-0.186 0.124-0.248 0.186l0.062 0.124 1.798 1.55z"></path>
<path fill="#198943" d="M16 30.88c6.448 0 11.904-4.092 14.012-9.796h-28.024c2.108 5.704 7.564 9.796 14.012 9.796z"></path>
<path fill="#26387d" d="M12.28 16.93c0 0 0 0 0 0v0z"></path>
<path fill="#26387d" d="M16.992 19.658v0.062z"></path>
<path fill="#26387d" d="M16.124 16.682l0.062 0.682 0.806 2.294-0.496-2.356z"></path>
<path fill="#26387d" d="M15.318 15.876l-0.682-0.31-2.294-0.496 2.294 0.744z"></path>
<path fill="#26387d" d="M12.342 15.070l-0.124-0.062c0 0 0 0 0 0l0.124 0.062z"></path>
<path fill="#26387d" d="M15.008 19.72c0 0 0 0 0 0v0z"></path>
<path fill="#26387d" d="M16 20.34c2.418 0 4.34-1.922 4.34-4.34s-1.922-4.34-4.34-4.34-4.34 1.922-4.34 4.34 1.922 4.34 4.34 4.34zM13.83 19.1c0.062-0.124 0.062-0.186-0.062-0.248s-0.186-0.062-0.248 0.062c-0.124-0.062-0.124-0.124-0.248-0.186v0c-0.062-0.062-0.124-0.186-0.186-0.248 0.062-0.062 0.124-0.186 0.062-0.248 0 0 0 0 0 0-0.062-0.124-0.124-0.124-0.248-0.062-0.062-0.124-0.124-0.124-0.124-0.248l2.232-1.116 0.558-0.434c0 0.062 0.062 0.062 0.062 0.124 0 0 0 0 0 0l-0.62 0.434-1.55 1.736 1.736-1.55 0.434-0.62c0.062 0.062 0.062 0.062 0.124 0.062l-0.434 0.558-1.116 2.17c-0.186-0.062-0.248-0.124-0.372-0.186zM17.674 19.472c-0.062-0.124-0.124-0.124-0.248-0.124 0 0 0 0 0 0-0.124 0.062-0.124 0.124-0.124 0.248 0 0 0 0 0 0-0.124 0.124-0.248 0.124-0.31 0.124v0c-0.124 0.062-0.186 0.062-0.31 0.062 0-0.124-0.124-0.124-0.186-0.124-0.124 0-0.124 0.124-0.124 0.186h-0.682c0-0.124-0.062-0.186-0.124-0.186s-0.186 0.062-0.186 0.124c-0.124 0-0.186-0.062-0.31-0.062v0c-0.124-0.062-0.186-0.062-0.31-0.124 0.062-0.062 0-0.186-0.062-0.248 0 0 0 0 0 0-0.062-0.062-0.186 0-0.248 0.062 0 0 0 0 0 0-0.062-0.062-0.186-0.062-0.248-0.124l1.364-2.046 0.248-0.682c0.124 0.062 0.186 0.124 0.31 0.124l-0.124 0.744 0.124 2.418 0.124-2.418-0.248-0.744c0.124 0 0.248-0.062 0.31-0.124l0.248 0.682 1.364 2.108c-0.124 0-0.186 0.062-0.248 0.124zM19.782 16.682c0 0.124-0.062 0.186-0.062 0.31-0.062 0.124-0.062 0.186-0.124 0.31-0.062-0.062-0.186 0-0.248 0.062 0 0 0 0 0 0-0.062 0.062 0 0.186 0.062 0.248 0 0 0 0 0 0-0.062 0.062-0.062 0.186-0.124 0.248v0c-0.062 0.062-0.124 0.124-0.124 0.248-0.124-0.062-0.186-0.062-0.248 0.062s-0.062 0.186 0.062 0.248c-0.062 0.124-0.124 0.124-0.186 0.248l-1.612-1.798-0.62-0.434 0.434 0.62 1.86 1.612c-0.062 0.062-0.186 0.124-0.248 0.186-0.062-0.062-0.186-0.124-0.248-0.062 0 0 0 0 0 0-0.124 0.062-0.124 0.124-0.062 0.248-0.124 0.062-0.124 0.124-0.248 0.124l-1.116-2.17-0.434-0.558c0.062 0 0.062-0.062 0.124-0.062 0.062-0.062 0.062-0.062 0.062-0.124l0.496 0.434 2.108 1.054-1.922-1.24-0.682-0.248c0.062-0.124 0.124-0.186 0.124-0.31l0.744 0.062 2.48-0.124v0.31c-0.124 0-0.186 0.062-0.186 0.124-0.186 0.31-0.124 0.372-0.062 0.372zM19.472 14.388c-0.124 0.062-0.124 0.124-0.124 0.248 0 0 0 0 0 0 0.062 0.124 0.124 0.124 0.248 0.124 0 0 0 0 0 0 0.062 0.124 0.062 0.186 0.124 0.31s0.062 0.186 0.062 0.31c-0.124 0-0.124 0.124-0.124 0.186 0 0.124 0.124 0.124 0.186 0.124v0.31l-2.48-0.124-0.682 0.124c0-0.124-0.062-0.248-0.124-0.31l0.682-0.248 2.108-1.302c0 0.062 0.062 0.186 0.124 0.248zM18.17 12.9c-0.062 0.124-0.062 0.186 0.062 0.248s0.186 0.062 0.248-0.062c0.124 0.062 0.124 0.124 0.248 0.186v0c0.062 0.062 0.124 0.186 0.186 0.248-0.062 0.062-0.124 0.186-0.062 0.248 0 0 0 0 0 0 0.062 0.124 0.124 0.124 0.248 0.062 0.062 0.124 0.124 0.124 0.124 0.248l-2.17 1.178-0.496 0.434c0-0.062-0.062-0.062-0.124-0.124 0 0 0 0 0 0l0.62-0.434 1.55-1.736-1.736 1.55-0.434 0.62c-0.062-0.062-0.062-0.062-0.124-0.062l0.434-0.558 1.116-2.17c0.124 0 0.186 0.062 0.31 0.124zM14.326 12.528c0.062 0.124 0.124 0.124 0.248 0.124 0 0 0 0 0 0 0.124-0.062 0.124-0.124 0.124-0.248 0 0 0 0 0 0 0.124-0.062 0.186-0.062 0.31-0.124v0c0.124-0.062 0.186-0.062 0.31-0.062 0 0.124 0.124 0.124 0.186 0.124 0.124 0 0.124-0.124 0.124-0.186h0.682c0 0.124 0.062 0.186 0.124 0.186s0.186-0.062 0.186-0.124c0.124 0 0.186 0.062 0.31 0.062v0c0.124 0.062 0.186 0.062 0.31 0.124-0.062 0.062 0 0.186 0.062 0.248 0 0 0 0 0 0 0.062 0.062 0.186 0 0.248-0.062 0 0 0 0 0 0 0.062 0.062 0.186 0.062 0.248 0.124l-1.24 2.046-0.248 0.682c-0.124-0.062-0.186-0.124-0.31-0.124l0.124-0.744-0.124-2.418-0.124 2.418 0.124 0.744c-0.124 0-0.248 0.062-0.31 0.124l-0.248-0.682-1.364-2.108c0.124 0 0.186-0.062 0.248-0.124zM12.9 13.892c0.124 0.062 0.186 0.062 0.248-0.062s0.062-0.186-0.062-0.248c0.062-0.124 0.124-0.124 0.186-0.248v0c0.062-0.062 0.124-0.124 0.248-0.186 0.062 0.062 0.186 0.124 0.248 0.062 0 0 0 0 0 0 0.124-0.062 0.124-0.124 0.062-0.248 0.124-0.062 0.124-0.124 0.248-0.124l1.116 2.17 0.434 0.496c-0.062 0-0.062 0.062-0.124 0.062l-0.372-0.558-1.736-1.55 1.55 1.736 0.558 0.372c0 0.062-0.062 0.062-0.062 0.124l-0.558-0.434-2.108-1.116c0-0.124 0.062-0.124 0.124-0.248zM12.218 15.318c0-0.124 0.062-0.186 0.062-0.31v0c0.062-0.124 0.062-0.186 0.124-0.31 0.062 0.062 0.186 0 0.248-0.062 0 0 0 0 0 0 0.062-0.062 0-0.186-0.062-0.248 0 0 0 0 0 0 0.062-0.062 0.062-0.186 0.124-0.248l2.108 1.302 0.682 0.248c-0.062 0.124-0.124 0.186-0.124 0.31l-0.744-0.062-2.48 0.124 2.48 0.124 0.744-0.062c0 0.124 0.062 0.248 0.124 0.372l-0.744 0.124-2.108 1.24c-0.062-0.062-0.062-0.186-0.124-0.248 0.124-0.062 0.124-0.124 0.124-0.248 0 0 0 0 0 0-0.062-0.124-0.186-0.124-0.248-0.124 0 0 0 0 0 0-0.062-0.124-0.062-0.186-0.124-0.31v0c-0.062-0.124-0.062-0.186-0.062-0.31 0.124 0 0.124-0.124 0.124-0.186s-0.124-0.124-0.186-0.124v-0.62c0.124 0 0.186-0.062 0.186-0.124s-0.062-0.248-0.124-0.248z"></path>
<path fill="#26387d" d="M15.318 16.124l-0.682 0.062-2.232 0.744 2.232-0.496z"></path>
<path fill="#26387d" d="M13.272 18.728c0 0 0 0 0 0v0z"></path>
<path fill="#26387d" d="M15.876 16.682l-0.372 0.62-0.434 2.356 0.744-2.294z"></path>
<path fill="#26387d" d="M18.728 13.272c0 0 0 0 0 0v0z"></path>
<path fill="#26387d" d="M16.186 15.318l0.31-0.62 0.434-2.294-0.744 2.232z"></path>
<path fill="#26387d" d="M16.93 12.404l0.062-0.124c0 0 0 0 0 0l-0.062 0.124z"></path>
<path fill="#26387d" d="M13.396 13.458l-0.062-0.124c0 0 0 0 0 0l0.062 0.124z"></path>
<path fill="#26387d" d="M16.682 16.186l0.682 0.31 2.356 0.496-2.356-0.744z"></path>
<path fill="#26387d" d="M16.682 15.876l0.682-0.062 2.356-0.744-2.356 0.496z"></path>
<path fill="#26387d" d="M19.162 17.798l0.124 0.062c0 0 0 0 0 0l-0.124-0.062z"></path>
<path fill="#26387d" d="M15.876 15.318l-0.062-0.682-0.806-2.294 0.558 2.294z"></path>
<path fill="#26387d" d="M15.008 12.342v-0.062z"></path>
<path fill="#cccccb" d="M31.5 16c0-8.556-6.944-15.5-15.5-15.5s-15.5 6.944-15.5 15.5 6.944 15.5 15.5 15.5 15.5-6.944 15.5-15.5zM16 1.12c6.448 0 11.904 4.092 14.012 9.796 0.558 1.612 0.868 3.286 0.868 5.084s-0.31 3.472-0.868 5.084c-2.108 5.704-7.564 9.796-14.012 9.796s-11.904-4.092-14.012-9.796c-0.558-1.612-0.868-3.286-0.868-5.084s0.31-3.472 0.868-5.084c2.108-5.704 7.564-9.796 14.012-9.796z"></path>
</svg>
