<svg xmlns="http://www.w3.org/2000/svg" width="34" height="34" viewBox="0 0 34 34">
    <g fill="none" fill-rule="evenodd" stroke="#000" stroke-linecap="round" stroke-linejoin="round">
        <path stroke-width="2.1" d="M2.008 1.05h8.064v8.4H2.008v-8.4zm22.176 0h8.064v8.4h-8.064v-8.4zM2.008 24.15h8.064v8.4H2.008v-8.4zm15.12-23.1h3.024-3.024zm-9.072 18.9h2.016-2.016zm16.128 4.2v8.4-8.4zm-4.032-4.2h4.032-4.032zm12.096-6.3v2.1-2.1zm0 5.25v1.05-1.05z"/>
        <g stroke-width="2.1">
            <path d="M2.008 17.85v2.1h2.016M14.104 1.05v4.2h3.024M20.152 5.25v4.2h-6.048M2.008 13.65h8.064v2.1M32.248 32.55h-4.032v-4.2h4.032v-4.2h-4.032M20.152 32.55h-6.048v-8.4M18.136 24.15h2.016v4.2h-2.016M14.104 17.85v2.1h2.016M22.168 19.95v-4.2M14.104 13.65h4.032v2.1M26.2 13.65v2.1h2.016v3.15"/>
        </g>
    </g>
</svg>
