<?xml version="1.0" encoding="UTF-8"?>
<svg width="50px" height="50px" viewBox="0 0 50 50" version="1.1" xmlns="http://www.w3.org/2000/svg" xmlns:xlink="http://www.w3.org/1999/xlink">
    <title>Safari</title>
    <g id="Unsupported-browser-Popup" stroke="none" stroke-width="1" fill="none" fill-rule="evenodd">
        <g id="1200_Unsupported-browser-Popup-Copy" transform="translate(-450.000000, -534.000000)" fill-rule="nonzero">
            <g id="Safari" transform="translate(450.000000, 534.000000)">
                <g id="Icon-/-Safari-">
                    <circle id="Oval" fill="#1DA2F8" cx="25" cy="25" r="25"></circle>
                    <path d="M25.3398438,46.6396484 C25.5082031,46.6396484 25.6447266,46.7761719 25.6447266,46.9445313 L25.6447266,48.3396484 C25.6447266,48.5080078 25.5082031,48.6445312 25.3398438,48.6445312 C25.1714844,48.6445312 25.0349609,48.5080078 25.0349609,48.3396484 L25.0349609,46.9445313 C25.0349609,46.7761719 25.1714844,46.6396484 25.3398438,46.6396484 Z M26.9990234,44.3039062 C27.1679688,44.2885742 27.3144531,44.4133789 27.3291992,44.5810547 L27.6480469,48.2256836 C27.6626953,48.393457 27.5386719,48.5413086 27.3708984,48.555957 C27.3619141,48.556543 27.352832,48.5570312 27.344043,48.5570312 C27.1875977,48.5570312 27.0544922,48.4374023 27.0407227,48.2788086 L26.721875,44.6341797 C26.7072266,44.4664062 26.83125,44.3185547 26.9990234,44.3039062 Z M23.6805664,44.3037109 C23.8483398,44.3183594 23.9724609,44.4661133 23.9577148,44.6339844 L23.6388672,48.2786133 C23.625,48.4374023 23.4919922,48.5570312 23.3355469,48.5570312 C23.3267578,48.5570312 23.3176758,48.5566406 23.3086914,48.5557617 C23.140918,48.5411133 23.0167969,48.3932617 23.031543,48.2254883 L23.3503906,44.5808594 C23.3649414,44.4131836 23.512793,44.2883789 23.6805664,44.3037109 Z M29.3916016,46.5634766 L29.6338867,47.9373047 C29.6630859,48.103125 29.5523437,48.2613281 29.3866211,48.2904297 C29.3686523,48.2936523 29.3509766,48.2952148 29.3333984,48.2952148 C29.1880859,48.2952148 29.0594727,48.1911133 29.0333984,48.0431641 L28.7911133,46.6692383 C28.7619141,46.503418 28.8726562,46.3452148 29.0383789,46.3161133 C29.2046875,46.2868164 29.3625,46.3975586 29.3916016,46.5634766 Z M21.6413086,46.3162109 C21.8070313,46.3455078 21.9177734,46.5035156 21.8885742,46.6693359 L21.6462891,48.0432617 C21.6201172,48.1910156 21.4916016,48.2952148 21.3462891,48.2952148 C21.3287109,48.2952148 21.3109375,48.2936523 21.2930664,48.2905273 C21.1273438,48.2612305 21.0166016,48.1032227 21.0458008,47.9374023 L21.2880859,46.5635742 C21.3172852,46.3977539 21.474707,46.2870117 21.6413086,46.3162109 Z M30.6402344,43.9431641 L31.5871094,47.4770508 C31.6306641,47.6397461 31.5342773,47.8068359 31.371582,47.8503906 C31.3449219,47.8575195 31.3185547,47.8608398 31.2924805,47.8608398 C31.1578125,47.8608398 31.034668,47.7709961 30.9982422,47.6348633 L30.0513672,44.1009766 C30.0078125,43.9382812 30.1041992,43.7711914 30.2668945,43.7276367 C30.4300781,43.6834961 30.596582,43.7805664 30.6402344,43.9431641 Z M20.4128906,43.7275391 C20.5756836,43.7710937 20.6720703,43.9382812 20.628418,44.1008789 L19.6814453,47.6347656 C19.6450195,47.7710937 19.5217773,47.8608398 19.387207,47.8608398 C19.3612305,47.8608398 19.3345703,47.8575195 19.3081055,47.850293 C19.1453125,47.8067383 19.0489258,47.6395508 19.0925781,47.4769531 L20.0395508,43.9430664 C20.0831055,43.7806641 20.2504883,43.6834961 20.4128906,43.7275391 Z M18.0548828,45.3550781 C18.2131836,45.4126953 18.2947266,45.5875977 18.2371094,45.7458984 L17.7599609,47.0568359 C17.7149414,47.1806641 17.5979492,47.2575195 17.4735352,47.2575195 C17.4388672,47.2575195 17.4037109,47.2515625 17.3693359,47.2390625 C17.2110352,47.1814453 17.1294922,47.006543 17.1870117,46.8482422 L17.6642578,45.5373047 C17.721875,45.3789063 17.896875,45.2974609 18.0548828,45.3550781 Z M33.0155273,45.5373047 L33.4927734,46.8482422 C33.5501953,47.006543 33.4686523,47.1814453 33.3104492,47.2390625 C33.2760742,47.2515625 33.240918,47.2575195 33.20625,47.2575195 C33.0817383,47.2575195 32.9648437,47.1805664 32.9198242,47.0568359 L32.4426758,45.7458984 C32.3850586,45.5875977 32.4666992,45.4126953 32.6249023,45.3550781 C32.7826172,45.2975586 32.9581055,45.3790039 33.0155273,45.5373047 Z M33.7901367,42.7401367 L35.3362305,46.055957 C35.4073242,46.2084961 35.3414062,46.3899414 35.1888672,46.4610352 C35.147168,46.4804687 35.1033203,46.4896484 35.0601562,46.4896484 C34.9453125,46.4896484 34.8353516,46.4244141 34.7836914,46.3135742 L33.2375977,42.9977539 C33.1665039,42.8452148 33.2324219,42.6637695 33.3849609,42.5926758 C33.5375,42.521582 33.7191406,42.5875977 33.7901367,42.7401367 Z M17.2947266,42.5925781 C17.4472656,42.6636719 17.5132813,42.8451172 17.4420898,42.9976563 L15.8958984,46.3134766 C15.8443359,46.4244141 15.734375,46.4896484 15.6195313,46.4896484 C15.5763672,46.4896484 15.5325195,46.4804688 15.4907227,46.4609375 C15.3381836,46.3898438 15.272168,46.2083984 15.3433594,46.0558594 L16.8895508,42.7400391 C16.9605469,42.5875 17.1422852,42.5214844 17.2947266,42.5925781 Z M14.6899414,43.7861328 C14.8358398,43.8703125 14.8856445,44.0567383 14.8015625,44.2025391 L14.1040039,45.4107422 C14.0474609,45.5084961 13.9450195,45.5631836 13.8396484,45.5631836 C13.7879883,45.5631836 13.7355469,45.55 13.6875,45.5222656 C13.5416016,45.4380859 13.4917969,45.2516602 13.5758789,45.1058594 L14.2734375,43.8976563 C14.3577148,43.7518555 14.5436523,43.7015625 14.6899414,43.7861328 Z M36.40625,43.8975586 L37.1038086,45.1057617 C37.1878906,45.2515625 37.1380859,45.4379883 36.9921875,45.522168 C36.9443359,45.55 36.8917969,45.5631836 36.8400391,45.5631836 C36.734668,45.5631836 36.6322266,45.5084961 36.5756836,45.4106445 L35.878125,44.2024414 C35.794043,44.0566406 35.8438477,43.8702148 35.9897461,43.7860352 C36.1353516,43.7014648 36.321875,43.7517578 36.40625,43.8975586 Z M36.6833984,41.0083984 L38.7817383,44.0053711 C38.878125,44.1433594 38.8447266,44.3333984 38.7068359,44.4299805 C38.6536133,44.4671875 38.5924805,44.4850586 38.5323242,44.4850586 C38.4362305,44.4850586 38.3416016,44.4397461 38.2822266,44.3550781 L36.1837891,41.3581055 C36.0874023,41.2201172 36.1208008,41.0300781 36.2586914,40.9334961 C36.397168,40.8367187 36.5869141,40.8706055 36.6833984,41.0083984 Z M14.4210938,40.9333984 C14.5589844,41.0298828 14.5923828,41.2200195 14.4959961,41.3580078 L12.3974609,44.3549805 C12.3379883,44.4397461 12.2435547,44.4850586 12.1473633,44.4850586 C12.0870117,44.4850586 12.0260742,44.4671875 11.9727539,44.4298828 C11.8348633,44.3333984 11.8014648,44.1432617 11.8978516,44.0052734 L13.9963867,41.0083008 C14.0931641,40.8705078 14.2829102,40.8368164 14.4210938,40.9333984 Z M11.6485352,41.6564453 C11.7776367,41.7647461 11.7944336,41.9569336 11.6862305,42.0860352 L10.7894531,43.1546875 C10.7291016,43.2265625 10.6425781,43.2635742 10.5556641,43.2635742 C10.4865234,43.2635742 10.4168945,43.2402344 10.3599609,43.1922852 C10.2308594,43.0839844 10.2140625,42.8917969 10.3222656,42.7626953 L11.219043,41.694043 C11.3274414,41.5650391 11.5198242,41.5483398 11.6485352,41.6564453 Z M39.4607422,41.694043 L40.3573242,42.7626953 C40.465625,42.8916992 40.4487305,43.0839844 40.3196289,43.1922852 C40.2626953,43.2402344 40.1930664,43.2635742 40.1239258,43.2635742 C40.0370117,43.2635742 39.9504883,43.2265625 39.8902344,43.1546875 L38.9935547,42.0860352 C38.8852539,41.9570312 38.9021484,41.7647461 39.03125,41.6564453 C39.1600586,41.5485352 39.3524414,41.5650391 39.4607422,41.694043 Z M39.2318359,38.8005859 L41.8188477,41.3875977 C41.9378906,41.506543 41.9378906,41.699707 41.8188477,41.81875 C41.7592773,41.8782227 41.68125,41.9080078 41.6032227,41.9080078 C41.525293,41.9080078 41.447168,41.8782227 41.3876953,41.81875 L38.8006836,39.2317383 C38.6816406,39.112793 38.6816406,38.9196289 38.8006836,38.8005859 C38.9197266,38.681543 39.1126953,38.681543 39.2318359,38.8005859 Z M41.8161468,8.85827402 L41.8317383,8.84794922 L41.8201563,8.86315625 L41.8626754,8.91612325 C41.9355588,9.03365753 41.9209821,9.19015067 41.8189453,9.2921875 L40.8681562,10.2421563 L28.3601562,28.3601562 L10.2421563,40.8681562 L9.2921875,41.81875 C9.23261719,41.8782227 9.15449219,41.9080078 9.0765625,41.9080078 C8.99985046,41.9080078 8.92294917,41.8791462 8.86383653,41.821516 L8.84794922,41.8317383 L8.85815625,41.8151563 L8.81730509,41.7636619 C8.74442164,41.6461276 8.75899833,41.4896345 8.86103516,41.3875977 L9.80815625,40.4391563 L22.3195313,22.3195313 L40.4391563,9.80815625 L41.387793,8.86103516 C41.5059083,8.7429198 41.6968019,8.74199942 41.8161468,8.85827402 Z M9.02324219,39.0310547 C9.13154297,39.1600586 9.11464844,39.3523437 8.98554688,39.4606445 L7.91689453,40.3574219 C7.85986328,40.4053711 7.79033203,40.4287109 7.72109375,40.4287109 C7.63417969,40.4287109 7.54765625,40.3916992 7.48740234,40.3198242 C7.37910156,40.1908203 7.39599609,39.9985352 7.52509766,39.8902344 L8.59375,38.993457 C8.72255859,38.8853516 8.91494141,38.9020508 9.02324219,39.0310547 Z M42.0860352,38.993457 L43.1545898,39.8902344 C43.2834961,39.9985352 43.300293,40.1907227 43.1921875,40.3198242 C43.1318359,40.3916992 43.0454102,40.4287109 42.9584961,40.4287109 C42.8893555,40.4287109 42.8197266,40.4053711 42.7625977,40.3574219 L41.694043,39.4606445 C41.5651367,39.3523437 41.5483398,39.1601562 41.6564453,39.0310547 C41.7647461,38.9019531 41.9569336,38.8853516 42.0860352,38.993457 Z M41.3582031,36.1838867 L44.3551758,38.2823242 C44.4930664,38.3788086 44.5264648,38.5689453 44.4300781,38.7069336 C44.3707031,38.7915039 44.2760742,38.8369141 44.1799805,38.8369141 C44.1196289,38.8369141 44.0586914,38.819043 44.0053711,38.7817383 L41.0083984,36.6833984 C40.8705078,36.5869141 40.8371094,36.3967773 40.9334961,36.2587891 C41.0302734,36.1209961 41.2199219,36.0873047 41.3582031,36.1838867 Z M9.74619141,36.2587891 C9.84257813,36.3967773 9.80917969,36.5868164 9.67128906,36.6833984 L6.67441406,38.7817383 C6.62119141,38.8189453 6.56015625,38.8369141 6.49980469,38.8369141 C6.40371094,38.8369141 6.30908203,38.7916016 6.24970703,38.7069336 C6.15332031,38.5689453 6.18671875,38.3789062 6.32460938,38.2823242 L9.32148438,36.1838867 C9.45996094,36.0871094 9.64970703,36.1209961 9.74619141,36.2587891 Z M6.89365234,35.9896484 C6.97773437,36.1354492 6.92792969,36.321875 6.78203125,36.4060547 L5.57382812,37.1036133 C5.52578125,37.1314453 5.4734375,37.1446289 5.42167969,37.1446289 C5.31630859,37.1446289 5.21386719,37.0899414 5.15732422,36.9920898 C5.07324219,36.8462891 5.12304687,36.6598633 5.26894531,36.5756836 L6.47714844,35.878125 C6.62314453,35.7935547 6.80927734,35.8438477 6.89365234,35.9896484 Z M44.2025391,35.8782227 L45.4106445,36.5757812 C45.556543,36.6599609 45.6063477,36.8463867 45.5222656,36.9921875 C45.465625,37.0899414 45.3632812,37.1446289 45.2579102,37.1446289 C45.20625,37.1446289 45.1537109,37.1314453 45.1057617,37.1037109 L43.8976562,36.4061523 C43.7517578,36.3219727 43.7019531,36.1355469 43.7860352,35.9897461 C43.8701172,35.8439453 44.0566406,35.7935547 44.2025391,35.8782227 Z M42.9978516,33.2375977 L46.3135742,34.7836914 C46.4661133,34.8547852 46.5321289,35.0362305 46.4609375,35.1887695 C46.409375,35.299707 46.2993164,35.3649414 46.1845703,35.3649414 C46.1414063,35.3649414 46.0975586,35.3557617 46.0557617,35.3362305 L42.7400391,33.7901367 C42.5875,33.719043 42.5214844,33.5375977 42.5926758,33.3850586 C42.6638672,33.2325195 42.8454102,33.1665039 42.9978516,33.2375977 Z M8.08701172,33.3850586 C8.15820313,33.5375977 8.0921875,33.719043 7.93945313,33.7901367 L4.62363281,35.3362305 C4.58212891,35.3556641 4.53818359,35.3649414 4.49501953,35.3649414 C4.38017578,35.3649414 4.27021484,35.299707 4.21855469,35.1887695 C4.14746094,35.0362305 4.21337891,34.8547852 4.36611328,34.7836914 L7.68193359,33.2375977 C7.83378906,33.1665039 8.01582031,33.2325195 8.08701172,33.3850586 Z M5.32441406,32.624707 C5.38203125,32.7830078 5.30039063,32.9579102 5.1421875,33.0155273 L3.83115234,33.4926758 C3.796875,33.5052734 3.76171875,33.5111328 3.72695313,33.5111328 C3.60244141,33.5111328 3.48554688,33.4341797 3.44052734,33.3104492 C3.38291016,33.1521484 3.46455078,32.9772461 3.62275391,32.9196289 L4.93378906,32.4424805 C5.09150391,32.3851562 5.26699219,32.4665039 5.32441406,32.624707 Z M45.7460937,32.4424805 L47.0570312,32.9196289 C47.2151367,32.9772461 47.2966797,33.1521484 47.2390625,33.3104492 C47.194043,33.434375 47.0769531,33.5111328 46.9526367,33.5111328 C46.9179687,33.5111328 46.8828125,33.5051758 46.8482422,33.4926758 L45.5373047,33.0155273 C45.3791992,32.9579102 45.2976562,32.7830078 45.3552734,32.624707 C45.4126953,32.4664062 45.5875977,32.3852539 45.7460937,32.4424805 Z M44.1007812,30.0511719 L47.6347656,30.9981445 C47.7975586,31.0416992 47.8939453,31.2088867 47.850293,31.3714844 C47.8139648,31.5078125 47.690625,31.5975586 47.5560547,31.5975586 C47.5300781,31.5975586 47.5035156,31.5942383 47.4769531,31.5870117 L43.9429687,30.6400391 C43.7801758,30.5964844 43.6837891,30.4292969 43.7274414,30.2666992 C43.7708984,30.1041016 43.937793,30.0073242 44.1007812,30.0511719 Z M6.95214844,30.2667969 C6.99570312,30.4294922 6.89931641,30.596582 6.73662109,30.6401367 L3.20263672,31.5871094 C3.17626953,31.5942383 3.14951172,31.5975586 3.12353516,31.5975586 C2.98886719,31.5975586 2.86572266,31.5078125 2.82929687,31.371582 C2.78574219,31.2088867 2.88212891,31.0417969 3.04482422,30.9982422 L6.57880859,30.0512695 C6.74101562,30.0070312 6.90849609,30.1041992 6.95214844,30.2667969 Z M4.36357422,29.0385742 C4.39277344,29.2042969 4.28212891,29.3625977 4.11630859,29.3916992 L2.74238281,29.6339844 C2.72441406,29.6371094 2.70664063,29.6386719 2.68916016,29.6386719 C2.54384766,29.6386719 2.41523438,29.5345703 2.38916016,29.3866211 C2.35996094,29.2208984 2.47060547,29.0625977 2.63642578,29.0334961 L4.01035156,28.7912109 C4.17675781,28.762207 4.33447266,28.8726562 4.36357422,29.0385742 Z M46.6693359,28.7912109 L48.0432617,29.0334961 C48.209082,29.062793 48.3197266,29.2208984 48.2905273,29.3866211 C48.2644531,29.5345703 48.1357422,29.6386719 47.9904297,29.6386719 C47.9728516,29.6386719 47.9550781,29.6371094 47.937207,29.6339844 L46.5633789,29.3916992 C46.3975586,29.3624023 46.2869141,29.2042969 46.3161133,29.0385742 C46.3453125,28.8728516 46.5025391,28.762207 46.6693359,28.7912109 Z M44.6339844,26.7217773 L48.2787109,27.040625 C48.4464844,27.0552734 48.5706055,27.2030273 48.5558594,27.3708984 C48.5419922,27.5297852 48.4088867,27.6493164 48.2525391,27.6493164 C48.24375,27.6493164 48.234668,27.6489258 48.2256836,27.6480469 L44.580957,27.3291992 C44.4131836,27.3145508 44.2890625,27.1667969 44.3038086,26.9989258 C44.318457,26.83125 44.4650391,26.7070312 44.6339844,26.7217773 Z M6.04560547,26.7219727 C6.21601563,26.7073242 6.36132813,26.831543 6.37587891,26.9991211 C6.39052734,27.1668945 6.26650391,27.3147461 6.09882813,27.3293945 L2.45419922,27.6482422 C2.44511719,27.6489258 2.43603516,27.6493164 2.42724609,27.6493164 C2.27080078,27.6493164 2.13769531,27.5296875 2.12392578,27.3710938 C2.10927734,27.2033203 2.23330078,27.0554688 2.40097656,27.0408203 L6.04560547,26.7219727 Z M48.3397461,25.0349609 C48.5081055,25.0349609 48.6446289,25.1714844 48.6446289,25.3398438 C48.6446289,25.5082031 48.5081055,25.6447266 48.3397461,25.6447266 L46.9445312,25.6447266 C46.7761719,25.6447266 46.6396484,25.5082031 46.6396484,25.3398438 C46.6396484,25.1714844 46.7761719,25.0349609 46.9445312,25.0349609 L48.3397461,25.0349609 Z M3.73505859,25.0349609 C3.90341797,25.0349609 4.03994141,25.1714844 4.03994141,25.3398438 C4.03994141,25.5082031 3.90341797,25.6447266 3.73505859,25.6447266 L2.34003906,25.6447266 C2.17167969,25.6447266 2.03515625,25.5082031 2.03515625,25.3398438 C2.03515625,25.1714844 2.17167969,25.0349609 2.34003906,25.0349609 L3.73505859,25.0349609 Z M48.2257813,23.0316406 C48.3945312,23.0158203 48.5412109,23.1412109 48.555957,23.3087891 C48.5706055,23.4765625 48.446582,23.6244141 48.2788086,23.6390625 L44.634082,23.9579102 C44.625,23.9585938 44.615918,23.9589844 44.6072266,23.9589844 C44.4507813,23.9589844 44.3176758,23.8393555 44.3039063,23.6807617 C44.2892578,23.5129883 44.4132813,23.3651367 44.5810547,23.3504883 L48.2257813,23.0316406 Z M2.45400391,23.0314453 L6.09863281,23.350293 C6.26630859,23.3649414 6.39033203,23.5126953 6.37568359,23.6805664 C6.36201172,23.8393555 6.22890625,23.9589844 6.07236328,23.9589844 C6.06337891,23.9589844 6.05449219,23.9585938 6.04541016,23.9577148 L2.40078125,23.6388672 C2.23310547,23.6242188 2.10908203,23.4764648 2.12373047,23.3085938 C2.13828125,23.1408203 2.28662109,23.0163086 2.45400391,23.0314453 Z M2.74238281,21.0457031 L4.11630859,21.2879883 C4.28212891,21.3172852 4.39277344,21.4753906 4.36357422,21.6411133 C4.3375,21.7890625 4.20888672,21.8931641 4.06357422,21.8931641 C4.04599609,21.8931641 4.02822266,21.8916016 4.01035156,21.8884766 L2.63642578,21.6461914 C2.47060547,21.6168945 2.35996094,21.4587891 2.38916016,21.2930664 C2.41835938,21.1273438 2.57578125,21.0166992 2.74238281,21.0457031 Z M48.290332,21.2930664 C48.3195313,21.4587891 48.2088867,21.6170898 48.0430664,21.6461914 L46.6692383,21.8884766 C46.6512695,21.8916016 46.6334961,21.8931641 46.615918,21.8931641 C46.4706055,21.8931641 46.3419922,21.7890625 46.315918,21.6411133 C46.2867188,21.4753906 46.3973633,21.3170898 46.5631836,21.2879883 L47.9371094,21.0457031 C48.1032227,21.0166992 48.2612305,21.1271484 48.290332,21.2930664 Z M3.20253906,19.0926758 L6.73652344,20.0395508 C6.89931641,20.0831055 6.99570313,20.250293 6.95205078,20.4128906 C6.91552734,20.5490234 6.79228516,20.6389648 6.6578125,20.6389648 C6.63183594,20.6389648 6.60527344,20.6356445 6.57871094,20.628418 L3.04472656,19.681543 C2.88193359,19.6379883 2.78554687,19.4708008 2.82919922,19.3082031 C2.87265625,19.1456055 3.03955078,19.0486328 3.20253906,19.0926758 Z M47.8504883,19.3083008 C47.894043,19.4709961 47.7976563,19.6380859 47.6349609,19.6816406 L44.1009766,20.6285156 C44.0745117,20.6355469 44.0479492,20.6389648 44.021875,20.6389648 C43.887207,20.6389648 43.7640625,20.5491211 43.7276367,20.4129883 C43.684082,20.250293 43.7804687,20.0832031 43.9431641,20.0396484 L47.4771484,19.0927734 C47.6396484,19.0487305 47.8068359,19.1457031 47.8504883,19.3083008 Z M3.83125,17.1869141 L5.14228516,17.6640625 C5.30058594,17.7216797 5.38212891,17.896582 5.32451172,18.0548828 C5.27949219,18.1786133 5.16259766,18.2555664 5.03808594,18.2555664 C5.00341797,18.2555664 4.96826172,18.2496094 4.93388672,18.2371094 L3.62285156,17.7599609 C3.46455078,17.7023438 3.38300781,17.5274414 3.440625,17.3691406 C3.49804688,17.2108398 3.6734375,17.1295898 3.83125,17.1869141 Z M47.2390625,17.3691406 C47.2966797,17.5274414 47.2150391,17.7023438 47.0570312,17.7599609 L45.7460937,18.2371094 C45.7114258,18.2496094 45.6763672,18.2555664 45.6416992,18.2555664 C45.5171875,18.2555664 45.400293,18.1786133 45.3552734,18.0548828 C45.2976562,17.896582 45.3792969,17.7216797 45.5373047,17.6640625 L46.8482422,17.1869141 C47.0068359,17.1295898 47.181543,17.2109375 47.2390625,17.3691406 Z M46.4609375,15.4910156 C46.5320313,15.6435547 46.4661133,15.825 46.3135742,15.8960937 L42.9978516,17.4421875 C42.95625,17.4616211 42.9124023,17.4708008 42.8691406,17.4708008 C42.7542969,17.4708008 42.6443359,17.4055664 42.5926758,17.2947266 C42.521582,17.1421875 42.5875,16.9607422 42.7400391,16.8896484 L46.0557617,15.3435547 C46.2083008,15.2725586 46.3898438,15.3384766 46.4609375,15.4910156 Z M4.62373047,15.343457 L7.93955078,16.8895508 C8.09228516,16.9606445 8.15820312,17.1420898 8.08710937,17.2946289 C8.03535156,17.4055664 7.92539062,17.4708008 7.81054687,17.4708008 C7.76738281,17.4708008 7.72363281,17.4616211 7.68193359,17.4420898 L4.36621094,15.8959961 C4.21347656,15.8249023 4.14755859,15.643457 4.21865234,15.490918 C4.28974609,15.3383789 4.47128906,15.2724609 4.62373047,15.343457 Z M5.57382812,13.5759766 L6.78203125,14.2735352 C6.92792969,14.3577148 6.97773437,14.5441406 6.89365234,14.6899414 C6.83720703,14.7876953 6.73476562,14.8423828 6.62929687,14.8423828 C6.57763672,14.8423828 6.52519531,14.8291992 6.47714844,14.8014648 L5.26894531,14.1039063 C5.12304687,14.0197266 5.07324219,13.8333008 5.15732422,13.6875 C5.24160156,13.5417969 5.42753906,13.4915039 5.57382812,13.5759766 Z M45.5223633,13.6874023 C45.6064453,13.8332031 45.5566406,14.0196289 45.4107422,14.1038086 L44.2026367,14.8013672 C44.1546875,14.8291992 44.1020508,14.8423828 44.0504883,14.8423828 C43.9451172,14.8423828 43.8426758,14.7876953 43.7861328,14.6898437 C43.7020508,14.544043 43.7518555,14.3576172 43.8977539,14.2734375 L45.1058594,13.5758789 C45.2514648,13.4914062 45.4379883,13.5416992 45.5223633,13.6874023 Z M6.67441406,11.8979492 L9.67128906,13.9962891 C9.80917969,14.0927734 9.84257813,14.2829102 9.74619141,14.4208984 C9.68681641,14.5056641 9.5921875,14.5510742 9.49609375,14.5510742 C9.43574219,14.5510742 9.37480469,14.5332031 9.32148438,14.4958984 L6.32460938,12.3974609 C6.18671875,12.3009766 6.15332031,12.1108398 6.24970703,11.9728516 C6.34648438,11.8348633 6.53623047,11.8013672 6.67441406,11.8979492 Z M44.4299805,11.9730469 C44.5263672,12.1110352 44.4929687,12.3010742 44.3550781,12.3976563 L41.3581055,14.4959961 C41.3048828,14.5331055 41.2438477,14.5510742 41.1834961,14.5510742 C41.0874023,14.5510742 40.9927734,14.5057617 40.9333984,14.4210938 C40.8370117,14.2831055 40.8704102,14.0930664 41.0083008,13.9964844 L44.0052734,11.8981445 C44.14375,11.8013672 44.3333008,11.8352539 44.4299805,11.9730469 Z M9.29208984,8.8609375 L11.8791016,11.4479492 C11.9981445,11.5668945 11.9981445,11.7600586 11.8791016,11.8791016 C11.8195313,11.9385742 11.7416016,11.968457 11.6634766,11.968457 C11.5855469,11.968457 11.5074219,11.9386719 11.4479492,11.8791992 L8.8609375,9.29208984 C8.74189453,9.17314453 8.74189453,8.97998047 8.8609375,8.8609375 C8.97998047,8.74189453 9.17294922,8.74189453 9.29208984,8.8609375 Z M43.1922852,10.3598633 C43.3005859,10.4888672 43.2836914,10.6810547 43.1546875,10.7894531 L42.0861328,11.6862305 C42.0289062,11.734082 41.9594727,11.7575195 41.8902344,11.7575195 C41.8033203,11.7575195 41.7167969,11.7205078 41.656543,11.6486328 C41.5482422,11.5196289 41.5651367,11.3274414 41.6941406,11.219043 L42.7626953,10.3222656 C42.8917969,10.2141602 43.084082,10.2308594 43.1922852,10.3598633 Z M7.91699219,10.3222656 L8.98564453,11.219043 C9.11474609,11.3273438 9.13154297,11.5195313 9.02333984,11.6486328 C8.96298828,11.7204102 8.87646484,11.7575195 8.78955078,11.7575195 C8.72041016,11.7575195 8.65078125,11.7341797 8.59384766,11.6862305 L7.52519531,10.7894531 C7.39609375,10.6811523 7.37929687,10.4889648 7.4875,10.3598633 C7.59580078,10.2307617 7.78818359,10.2141602 7.91699219,10.3222656 Z M12.3974609,6.32460938 L14.4959961,9.32158203 C14.5923828,9.45957031 14.5589844,9.64960938 14.4210938,9.74619141 C14.3677734,9.78339844 14.3067383,9.80126953 14.2464844,9.80126953 C14.1503906,9.80126953 14.0557617,9.75595703 13.9963867,9.67128906 L11.8978516,6.67431641 C11.8014648,6.53632813 11.8348633,6.34628906 11.9727539,6.24970703 C12.1112305,6.15292969 12.3009766,6.18681641 12.3974609,6.32460938 Z M38.7068359,6.24960937 C38.8447266,6.34609375 38.878125,6.53623047 38.7817383,6.67421875 L36.6833984,9.67119141 C36.6239258,9.75595703 36.5293945,9.80126953 36.4332031,9.80126953 C36.3728516,9.80126953 36.3119141,9.78339844 36.2585937,9.74609375 C36.1207031,9.64960937 36.0873047,9.45947266 36.1836914,9.32148437 L38.2821289,6.32451172 C38.3788086,6.18652344 38.5688477,6.15302734 38.7068359,6.24960937 Z M10.7894531,7.525 L11.6862305,8.59365234 C11.7945312,8.72265625 11.7776367,8.91494141 11.6485352,9.02324219 C11.5915039,9.07119141 11.5219727,9.09453125 11.4527344,9.09453125 C11.3658203,9.09453125 11.2792969,9.05751953 11.219043,8.98564453 L10.3222656,7.91699219 C10.2139648,7.78798828 10.2308594,7.59570313 10.3599609,7.48740234 C10.4887695,7.37929688 10.6811523,7.39599609 10.7894531,7.525 Z M40.3197266,7.48740234 C40.4488281,7.59570313 40.465625,7.78798828 40.3574219,7.91699219 L39.4608398,8.98564453 C39.4004883,9.05751953 39.3139648,9.09453125 39.2269531,9.09453125 C39.1578125,9.09453125 39.0881836,9.07119141 39.03125,9.02324219 C38.9021484,8.91494141 38.8853516,8.72275391 38.9935547,8.59365234 L39.8902344,7.525 C39.9985352,7.39599609 40.1910156,7.37929688 40.3197266,7.48740234 Z M15.8959961,4.36611328 L17.4421875,7.68193359 C17.5132812,7.83447266 17.4473633,8.01591797 17.2948242,8.08701172 C17.2532227,8.10644531 17.2092773,8.115625 17.1661133,8.115625 C17.0512695,8.115625 16.9413086,8.05039062 16.8896484,7.93955078 L15.343457,4.62373047 C15.2723633,4.47119141 15.3382813,4.28974609 15.4908203,4.21865234 C15.6432617,4.14755859 15.825,4.21347656 15.8959961,4.36611328 Z M35.1888672,4.21855469 C35.3414062,4.28964844 35.4074219,4.47109375 35.3362305,4.62363281 L33.7901367,7.93945313 C33.7383789,8.05048828 33.628418,8.115625 33.5137695,8.115625 C33.4706055,8.115625 33.4267578,8.10644531 33.3849609,8.08691406 C33.2324219,8.01582031 33.1664062,7.834375 33.2375977,7.68183594 L34.7836914,4.36601563 C34.8546875,4.21337891 35.0364258,4.14746094 35.1888672,4.21855469 Z M19.6814453,3.04492187 L20.628418,6.57880859 C20.6719727,6.74150391 20.5755859,6.90859375 20.4128906,6.95214844 C20.3865234,6.95927734 20.3598633,6.96259766 20.3337891,6.96259766 C20.1991211,6.96259766 20.0759766,6.87275391 20.0395508,6.73662109 L19.0925781,3.20273437 C19.0490234,3.04003906 19.1454102,2.87294922 19.3081055,2.82939453 C19.4707031,2.78496094 19.6379883,2.88232422 19.6814453,3.04492187 Z M31.371582,2.82929687 C31.534375,2.87285156 31.6307617,3.04003906 31.5871094,3.20263672 L30.6402344,6.73652344 C30.6038086,6.87265625 30.4805664,6.96259766 30.3459961,6.96259766 C30.3200195,6.96259766 30.293457,6.95927734 30.2668945,6.95205078 C30.1041016,6.90849609 30.0077148,6.74130859 30.0513672,6.57871094 L30.9982422,3.04482422 C31.0417969,2.88222656 31.2083008,2.78496094 31.371582,2.82929687 Z M14.1040039,5.26894531 L14.8015625,6.47714844 C14.8856445,6.62294922 14.8358398,6.809375 14.6899414,6.89355469 C14.6420898,6.92138672 14.5895508,6.93457031 14.537793,6.93457031 C14.4324219,6.93457031 14.3299805,6.87988281 14.2734375,6.78203125 L13.5758789,5.57382813 C13.4917969,5.42802734 13.5416016,5.24160156 13.6875,5.15742188 C13.8331055,5.07285156 14.0197266,5.12314453 14.1040039,5.26894531 Z M36.9921875,5.15751953 C37.1380859,5.24169922 37.1878906,5.428125 37.1038086,5.57392578 L36.40625,6.78212891 C36.349707,6.87988281 36.2472656,6.93457031 36.1418945,6.93457031 C36.0902344,6.93457031 36.037793,6.92138672 35.9897461,6.89365234 C35.8438477,6.80947266 35.794043,6.62304688 35.878125,6.47724609 L36.5756836,5.26904297 C36.6599609,5.12324219 36.8458984,5.07285156 36.9921875,5.15751953 Z M23.3087891,2.12392578 C23.4767578,2.10859375 23.6244141,2.23339844 23.6389648,2.40107422 L23.9578125,6.04570313 C23.9724609,6.21347656 23.8484375,6.36132813 23.6806641,6.37597656 C23.6716797,6.37666016 23.6625977,6.37705078 23.6538086,6.37705078 C23.4973633,6.37705078 23.3642578,6.25742188 23.3504883,6.09882813 L23.0316406,2.45419922 C23.0169922,2.28642578 23.1410156,2.13857422 23.3087891,2.12392578 Z M27.3708008,2.12373047 C27.5385742,2.13837891 27.6626953,2.28613281 27.6479492,2.45400391 L27.3291016,6.09863281 C27.315332,6.25751953 27.1823242,6.37705078 27.0257812,6.37705078 C27.0169922,6.37705078 27.0079102,6.37666016 26.9989258,6.37578125 C26.8311523,6.36113281 26.7070312,6.21337891 26.7217773,6.04550781 L27.040625,2.40087891 C27.0551758,2.23320312 27.2014648,2.10830078 27.3708008,2.12373047 Z M17.7598633,3.62275391 L18.2370117,4.93369141 C18.2946289,5.09199219 18.2129883,5.26689453 18.0547852,5.32451172 C18.0204102,5.33701172 17.9852539,5.34296875 17.9505859,5.34296875 C17.8260742,5.34296875 17.7091797,5.26601562 17.6641602,5.14228516 L17.1869141,3.83134766 C17.1294922,3.67304687 17.2110352,3.49814453 17.3692383,3.44052734 C17.5269531,3.38320312 17.7024414,3.46445312 17.7598633,3.62275391 Z M33.3104492,3.44052734 C33.46875,3.49814453 33.550293,3.67304688 33.4927734,3.83134766 L33.0155273,5.14228516 C32.9707031,5.26611328 32.8536133,5.34296875 32.7291016,5.34296875 C32.6944336,5.34296875 32.6592773,5.33701172 32.6249023,5.32451172 C32.4666016,5.26689453 32.3850586,5.09199219 32.4426758,4.93369141 L32.9198242,3.62275391 C32.9772461,3.46435547 33.1526367,3.38320313 33.3104492,3.44052734 Z M21.6460938,2.63662109 L21.8883789,4.01054688 C21.9175781,4.17636719 21.8068359,4.33457031 21.6411133,4.36367188 C21.6231445,4.36669922 21.6054688,4.36835938 21.5878906,4.36835938 C21.4425781,4.36835938 21.3139648,4.26425781 21.2878906,4.11630859 L21.0456055,2.74238281 C21.0164063,2.5765625 21.1271484,2.41835938 21.2928711,2.38925781 C21.4591797,2.36035156 21.6169922,2.47080078 21.6460938,2.63662109 Z M29.3868164,2.38925781 C29.5525391,2.41855469 29.6632812,2.5765625 29.634082,2.74238281 L29.3917969,4.11630859 C29.365625,4.26416016 29.2371094,4.36835938 29.0917969,4.36835938 C29.0742187,4.36835938 29.0564453,4.36679688 29.0385742,4.36367188 C28.8728516,4.334375 28.7621094,4.17636719 28.7913086,4.01054688 L29.0335937,2.63662109 C29.062793,2.47089844 29.2202148,2.36054688 29.3868164,2.38925781 Z M25.3398438,2.03515625 C25.5082031,2.03515625 25.6447266,2.17167969 25.6447266,2.34003906 L25.6447266,3.73515625 C25.6447266,3.90351562 25.5082031,4.04003906 25.3398438,4.04003906 C25.1714844,4.04003906 25.0349609,3.90351562 25.0349609,3.73515625 L25.0349609,2.34003906 C25.0349609,2.17167969 25.1714844,2.03515625 25.3398438,2.03515625 Z" id="Combined-Shape" fill="#F2F2F2"></path>
                </g>
                <polygon id="Path" fill="#CCCCCC" points="28.0203125 28.0203125 41.4918945 8.50810547 8.50810547 41.4918945"></polygon>
                <polygon id="Path" fill="#FF525D" points="28.0203125 28.0203125 41.4918945 8.50810547 21.9796875 21.9796875"></polygon>
                <polygon id="Path" fill="#EF4152" points="28.0203125 28.0203125 41.4918945 8.50810547 25 25"></polygon>
            </g>
        </g>
    </g>
</svg>